<?xml version="1.0" encoding="utf-8"?>
<!-- Generator: Adobe Illustrator 26.0.1, SVG Export Plug-In . SVG Version: 6.00 Build 0)  -->
<svg version="1.1" id="Слой_1" xmlns="http://www.w3.org/2000/svg" xmlns:xlink="http://www.w3.org/1999/xlink" x="0px" y="0px"
	 viewBox="0 0 313.47 364.47" style="enable-background:new 0 0 313.47 364.47;" xml:space="preserve">
<style type="text/css">
	.st0{fill:#010202;}
	.st1{fill:url(#SVGID_1_);}
</style>
<g>
	<path d="M85.91,287.65l-1.83,1.83h-0.23l-2.13-2.15c-1.08,0.52-2.47,0.79-4.17,0.79l-0.23,0.02c-2.78,0-4.93-0.83-6.46-2.48
		c-1.48-1.59-2.22-3.79-2.22-6.6c0-2.81,0.74-5.01,2.22-6.6c1.53-1.65,3.68-2.48,6.46-2.48h0.23c2.76,0,4.92,0.83,6.46,2.48
		c1.48,1.6,2.22,3.8,2.22,6.6c0,2.04-0.47,3.87-1.41,5.49c-0.26,0.45-0.55,0.83-0.88,1.16L85.91,287.65z M80.95,282.68l0.07-0.12
		c0.4-0.94,0.6-2.11,0.6-3.5c0-2.69-0.81-4.48-2.43-5.37c-0.35-0.15-0.67-0.25-0.95-0.28l-0.81-0.09l-0.81,0.07
		c-0.93,0.08-1.78,0.7-2.57,1.88c-0.54,0.8-0.81,2.07-0.81,3.8c0,2.83,0.82,4.62,2.46,5.37c0.21,0.11,0.52,0.21,0.93,0.3l0.81,0.07
		c0.34,0.03,0.65,0,0.93-0.09c0.28-0.03,0.54-0.12,0.79-0.25l0.11-0.05l0.12-0.07l-2.18-2.08l1.6-1.55h0.23L80.95,282.68z"/>
	<path d="M97.81,270.47l6.46,17.18h-4.52l-1.11-3.22h-6l-1.09,3.22h-4.52l6.44-17.18H97.81z M97.76,281.52l-2.11-6.21l-2.13,6.21
		H97.76z"/>
	<path d="M105.13,273.9v-3.43h13.57v3.11l-8.85,10.65h9.43v3.43h-14.59v-3.59l8.68-10.17H105.13z"/>
	<path d="M128.61,273.81v-3.33h14.66v3.33h-5.19v13.85h-4.28v-13.85H128.61z"/>
	<path d="M158.12,277.31v3.15h-8.41v3.87h9.77v3.33h-14.06v-17.18h13.83v3.33h-9.54v3.5H158.12z"/>
	<path d="M165.25,282.08v0.09v0.51l0.14,0.51c0.17,0.63,0.59,1.11,1.25,1.44c0.57,0.28,1.21,0.4,1.92,0.37l0.56-0.02l0.63-0.07
		c0.38-0.05,0.79-0.23,1.23-0.56c0.35-0.26,0.53-0.7,0.53-1.3c0-0.64-0.24-1.13-0.72-1.49c-0.32-0.23-0.84-0.46-1.55-0.7
		c-0.34-0.11-0.83-0.23-1.48-0.37l-0.32-0.07l-0.3-0.06c-0.12,0-0.22-0.02-0.28-0.05l-0.25-0.07c-1.79-0.49-3.02-1.01-3.68-1.55
		c-0.94-0.79-1.41-2-1.41-3.63c0-1.76,0.59-2.99,1.76-3.7c1.39-0.85,2.71-1.29,3.96-1.32l1.53-0.05c2.02-0.06,3.54,0.34,4.55,1.2
		c1.01,0.87,1.61,1.76,1.79,2.69l0.14,0.67l0.05,0.65h-4.08l-0.02-0.23l-0.05-0.23c-0.21-1.07-1.13-1.6-2.74-1.6
		c-1.74,0-2.61,0.61-2.61,1.83c0,0.94,0.77,1.58,2.29,1.9l0.56,0.11l0.53,0.09c2.08,0.37,3.61,0.84,4.56,1.41
		c1.44,0.87,2.15,2.18,2.15,3.94c0,1.91-0.81,3.44-2.43,4.59c-1.05,0.74-2.66,1.11-4.84,1.11l-0.23,0.02
		c-3.44,0-5.72-1.09-6.83-3.27c-0.31-0.62-0.49-1.14-0.53-1.57l-0.11-1.23H165.25z"/>
	<path d="M177.06,273.81v-3.33h14.66v3.33h-5.19v13.85h-4.28v-13.85H177.06z"/>
	<path d="M198.16,270.47v17.18h-4.28v-17.18H198.16z"/>
	<path d="M212.73,281.2v-10.72h4.29v17.18h-4.29l-6.62-10.84v10.84h-4.28v-17.18h4.28L212.73,281.2z"/>
	<path d="M236.86,278.32v9.33h-3.24v-1.6c-0.71,0.97-1.82,1.63-3.34,1.97l-0.88,0.09h-0.81l-0.23,0.07l-0.07-0.07h-1.65
		c-0.73-0.05-1.52-0.26-2.39-0.65c-2.9-1.32-4.35-4.12-4.35-8.43c0-2.93,0.78-5.17,2.34-6.72c1.56-1.56,3.8-2.33,6.72-2.33h0.23
		c2.96,0,5.1,1.02,6.42,3.06c0.43,0.68,0.72,1.31,0.86,1.9l0.25,1.11h-4.49c0-0.85-0.33-1.53-0.98-2.04
		c-0.6-0.45-1.35-0.67-2.23-0.67c-2.17,0-3.58,1.07-4.23,3.2c-0.17,0.56-0.26,1.03-0.28,1.44v1.16c-0.06,1.44,0.19,2.63,0.76,3.59
		c0.65,1.1,1.64,1.78,2.96,2.04l0.35,0.07h0.32c1.05,0,1.93-0.31,2.63-0.92c0.7-0.61,1.11-1.43,1.22-2.47h-3.43v-3.13H236.86z"/>
</g>
<path class="st0" d="M236.82,147.66v-0.13c-0.62-20.68-8.81-41.18-24.59-56.98c-16.43-16.42-37.96-24.63-59.48-24.63
	c-21.54,0-43.06,8.21-59.48,24.63c-32.85,32.85-32.85,86.12,0,118.96c16.42,16.43,37.94,24.64,59.48,24.64l0,18.27
	c19.62-3.85,38.35-13.38,53.55-28.59c19.73-19.75,29.91-45.42,30.53-71.3v-0.13c0.02-0.8,0.03-1.58,0.03-2.37
	C236.86,149.24,236.84,148.46,236.82,147.66z M190.38,187.68c-10.05,10.05-23.42,15.59-37.63,15.59c-14.22,0-27.59-5.54-37.65-15.59
	c-20.74-20.76-20.74-54.52,0-75.28c10.06-10.05,23.42-15.59,37.65-15.59c14.21,0,27.59,5.54,37.63,15.59
	C211.14,133.16,211.14,166.92,190.38,187.68z"/>
<g>
	<path d="M-272.56,287.65l-1.83,1.83h-0.23l-2.13-2.15c-1.08,0.52-2.47,0.79-4.17,0.79l-0.23,0.02c-2.78,0-4.93-0.83-6.46-2.48
		c-1.48-1.59-2.22-3.79-2.22-6.6c0-2.81,0.74-5.01,2.22-6.6c1.53-1.65,3.68-2.48,6.46-2.48h0.23c2.76,0,4.92,0.83,6.46,2.48
		c1.48,1.6,2.22,3.8,2.22,6.6c0,2.04-0.47,3.87-1.41,5.49c-0.26,0.45-0.55,0.83-0.88,1.16L-272.56,287.65z M-277.52,282.68
		l0.07-0.12c0.4-0.94,0.6-2.11,0.6-3.5c0-2.69-0.81-4.48-2.43-5.37c-0.35-0.15-0.67-0.25-0.95-0.28l-0.81-0.09l-0.81,0.07
		c-0.93,0.08-1.78,0.7-2.57,1.88c-0.54,0.8-0.81,2.07-0.81,3.8c0,2.83,0.82,4.62,2.46,5.37c0.21,0.11,0.52,0.21,0.93,0.3l0.81,0.07
		c0.34,0.03,0.65,0,0.93-0.09c0.28-0.03,0.54-0.12,0.79-0.25l0.11-0.05l0.12-0.07l-2.18-2.08l1.6-1.55h0.23L-277.52,282.68z"/>
	<path d="M-260.66,270.47l6.46,17.18h-4.52l-1.11-3.22h-6l-1.09,3.22h-4.52l6.44-17.18H-260.66z M-260.7,281.52l-2.11-6.21
		l-2.13,6.21H-260.7z"/>
	<path d="M-253.34,273.9v-3.43h13.57v3.11l-8.85,10.65h9.43v3.43h-14.59v-3.59l8.68-10.17H-253.34z"/>
	<path d="M-229.85,273.81v-3.33h14.66v3.33h-5.19v13.85h-4.28v-13.85H-229.85z"/>
	<path d="M-200.35,277.31v3.15h-8.41v3.87h9.77v3.33h-14.06v-17.18h13.83v3.33h-9.54v3.5H-200.35z"/>
	<path d="M-193.22,282.08v0.09v0.51l0.14,0.51c0.17,0.63,0.59,1.11,1.25,1.44c0.57,0.28,1.21,0.4,1.92,0.37l0.56-0.02l0.63-0.07
		c0.38-0.05,0.79-0.23,1.23-0.56c0.35-0.26,0.53-0.7,0.53-1.3c0-0.64-0.24-1.13-0.72-1.49c-0.32-0.23-0.84-0.46-1.55-0.7
		c-0.34-0.11-0.83-0.23-1.48-0.37l-0.32-0.07l-0.3-0.06c-0.12,0-0.22-0.02-0.28-0.05l-0.25-0.07c-1.79-0.49-3.02-1.01-3.68-1.55
		c-0.94-0.79-1.41-2-1.41-3.63c0-1.76,0.59-2.99,1.76-3.7c1.39-0.85,2.71-1.29,3.96-1.32l1.53-0.05c2.02-0.06,3.54,0.34,4.55,1.2
		c1.01,0.87,1.61,1.76,1.79,2.69l0.14,0.67l0.05,0.65h-4.08l-0.02-0.23l-0.05-0.23c-0.21-1.07-1.13-1.6-2.74-1.6
		c-1.74,0-2.61,0.61-2.61,1.83c0,0.94,0.77,1.58,2.29,1.9l0.56,0.11l0.53,0.09c2.08,0.37,3.61,0.84,4.56,1.41
		c1.44,0.87,2.15,2.18,2.15,3.94c0,1.91-0.81,3.44-2.43,4.59c-1.05,0.74-2.66,1.11-4.84,1.11l-0.23,0.02
		c-3.44,0-5.72-1.09-6.83-3.27c-0.31-0.62-0.49-1.14-0.53-1.57l-0.11-1.23H-193.22z"/>
	<path d="M-181.41,273.81v-3.33h14.66v3.33h-5.19v13.85h-4.28v-13.85H-181.41z"/>
	<path d="M-160.31,270.47v17.18h-4.28v-17.18H-160.31z"/>
	<path d="M-145.74,281.2v-10.72h4.29v17.18h-4.29l-6.62-10.84v10.84h-4.28v-17.18h4.28L-145.74,281.2z"/>
	<path d="M-121.61,278.32v9.33h-3.24v-1.6c-0.71,0.97-1.82,1.63-3.34,1.97l-0.88,0.09h-0.81l-0.23,0.07l-0.07-0.07h-1.65
		c-0.73-0.05-1.52-0.26-2.39-0.65c-2.9-1.32-4.35-4.12-4.35-8.43c0-2.93,0.78-5.17,2.34-6.72c1.56-1.56,3.8-2.33,6.72-2.33h0.23
		c2.96,0,5.1,1.02,6.42,3.06c0.43,0.68,0.72,1.31,0.86,1.9l0.25,1.11h-4.49c0-0.85-0.33-1.53-0.98-2.04
		c-0.6-0.45-1.35-0.67-2.23-0.67c-2.17,0-3.58,1.07-4.23,3.2c-0.17,0.56-0.26,1.03-0.28,1.44v1.16c-0.06,1.44,0.19,2.63,0.76,3.59
		c0.65,1.1,1.64,1.78,2.96,2.04l0.35,0.07h0.32c1.05,0,1.93-0.31,2.63-0.92c0.7-0.61,1.11-1.43,1.22-2.47h-3.43v-3.13H-121.61z"/>
</g>
<linearGradient id="SVGID_1_" gradientUnits="userSpaceOnUse" x1="-182.0907" y1="77.3393" x2="-234.2579" y2="241.2934">
	<stop  offset="1.341105e-07" style="stop-color:#6BC7F0"/>
	<stop  offset="1" style="stop-color:#2AA3DD"/>
</linearGradient>
<path class="st1" d="M-121.64,147.66v-0.13c-0.62-20.68-8.81-41.18-24.59-56.98c-16.43-16.42-37.96-24.63-59.48-24.63
	c-21.54,0-43.06,8.21-59.48,24.63c-32.85,32.85-32.85,86.12,0,118.96c16.42,16.43,37.94,24.64,59.48,24.64v18.27
	c19.62-3.85,38.35-13.38,53.55-28.59c19.73-19.75,29.91-45.42,30.53-71.3v-0.13c0.02-0.8,0.03-1.58,0.03-2.37
	C-121.61,149.24-121.63,148.46-121.64,147.66z M-168.09,187.68c-10.05,10.05-23.42,15.59-37.63,15.59
	c-14.22,0-27.59-5.54-37.65-15.59c-20.74-20.76-20.74-54.52,0-75.28c10.06-10.05,23.42-15.59,37.65-15.59
	c14.21,0,27.59,5.54,37.63,15.59C-147.33,133.16-147.33,166.92-168.09,187.68z"/>
</svg>
